<?xml version="1.0" standalone="no"?>
<!DOCTYPE svg PUBLIC "-//W3C//DTD SVG 20010904//EN"
 "http://www.w3.org/TR/2001/REC-SVG-20010904/DTD/svg10.dtd">
<svg version="1.0" xmlns="http://www.w3.org/2000/svg"
 width="192.000000pt" height="80.000000pt" viewBox="0 0 192.000000 80.000000"
 preserveAspectRatio="xMidYMid meet">
<metadata>
Created by potrace 1.16, written by Peter Selinger 2001-2019
</metadata>
<g transform="translate(0.000000,80.000000) scale(0.100000,-0.100000)"
fill="#000000" stroke="none">
<path d="M171 659 c-42 -39 -54 -66 -47 -103 7 -36 61 -100 76 -91 6 4 17 1
25 -5 8 -7 23 -9 32 -5 14 5 12 -1 -7 -22 -46 -51 -64 -106 -42 -127 4 -4 7
-11 7 -14 2 -22 30 -52 59 -63 30 -11 34 -16 29 -39 -4 -23 -1 -28 21 -32 22
-4 33 2 60 36 53 66 68 116 54 186 -6 33 -80 90 -108 83 -11 -3 -20 0 -20 6 0
6 5 11 11 11 5 0 19 20 30 45 17 39 19 51 9 81 -26 78 -132 108 -189 53z"/>
<path d="M691 574 c-19 -8 -31 -17 -28 -20 3 -4 -1 -13 -9 -22 -18 -18 -12
-55 14 -82 21 -23 82 -49 99 -43 14 5 27 -32 16 -49 -9 -15 -63 -18 -63 -4 0
5 -3 6 -7 3 -3 -4 -15 0 -25 9 -14 14 -20 14 -33 4 -32 -27 -8 -58 62 -80 72
-22 137 16 139 85 2 41 -39 83 -93 97 -55 13 -71 31 -40 45 17 8 33 7 60 -2
31 -11 38 -10 51 4 18 20 9 37 -29 57 -34 18 -71 17 -114 -2z"/>
<path d="M1620 570 c-8 -14 -8 -20 0 -20 6 0 9 -4 6 -9 -3 -5 1 -14 9 -21 8
-7 15 -19 15 -27 0 -7 6 -16 13 -19 23 -8 17 -46 -14 -90 -16 -24 -27 -44 -24
-44 4 0 -1 -8 -11 -17 -17 -17 -16 -18 15 -21 25 -3 37 2 54 25 12 15 21 30
20 33 0 3 5 11 13 18 12 11 16 9 26 -13 6 -14 14 -25 18 -25 4 0 10 -9 13 -20
4 -14 14 -20 35 -20 17 0 33 3 35 8 3 4 -13 35 -34 70 l-39 63 40 61 c30 47
37 65 29 75 -22 26 -41 13 -106 -76 -1 -2 -14 8 -27 22 -14 15 -23 27 -21 27
3 0 -3 9 -12 20 -10 11 -23 20 -30 20 -7 0 -17 -9 -23 -20z"/>
<path d="M893 540 c-9 -16 -21 -30 -25 -30 -13 0 -9 -30 5 -36 9 -3 14 -25 16
-62 3 -88 6 -96 40 -116 31 -18 34 -18 68 -2 41 19 35 33 -20 52 -30 10 -32
14 -35 67 l-3 56 38 3 c46 4 54 31 11 36 -16 2 -28 9 -28 15 0 7 -4 6 -10 -3
-7 -11 -10 -7 -10 18 0 41 -23 42 -47 2z"/>
<path d="M1100 521 c0 -7 -4 -10 -8 -7 -5 3 -22 -8 -37 -24 -16 -17 -25 -30
-21 -30 5 0 3 -6 -3 -14 -13 -16 -12 -96 2 -96 4 0 6 -4 3 -9 -7 -11 21 -35
62 -51 34 -13 78 -3 114 28 20 16 34 93 22 119 -4 10 -8 21 -8 24 -3 20 -54
56 -76 54 -14 -1 -31 2 -37 7 -9 7 -13 7 -13 -1z"/>
<path d="M1350 521 c0 -4 -17 -8 -37 -8 l-38 1 -3 -108 -3 -107 28 3 c27 3 28
6 31 63 3 74 18 106 47 102 23 -3 58 -31 49 -40 -3 -3 2 -20 12 -39 18 -34 22
-46 26 -87 2 -20 -3 -26 -29 -33 -37 -10 -46 -20 -37 -42 9 -22 41 -30 73 -16
30 12 72 76 64 98 -3 6 0 12 5 12 10 0 26 32 27 55 1 6 9 25 18 43 10 17 15
32 11 32 -3 0 1 11 10 25 15 23 15 25 -4 35 -14 7 -25 7 -38 -1 -18 -11 -43
-70 -43 -101 0 -33 -17 -18 -35 30 -24 64 -31 72 -70 72 -19 0 -34 5 -34 10 0
6 -7 10 -15 10 -8 0 -15 -4 -15 -9z"/>
</g>
</svg>
