<svg xmlns="http://www.w3.org/2000/svg" xmlns:xlink="http://www.w3.org/1999/xlink" width="192" zoomAndPan="magnify" viewBox="0 0 144 60" height="80" preserveAspectRatio="xMidYMid meet" version="1.0"><defs><g/></defs><g fill="#000000" fill-opacity="1"><g transform="translate(1.578563, 40.432378)"><g><path d="M 14.585938 0.640625 C 22.984375 0.640625 26.3125 -3.539062 26.3125 -8.359375 C 26.3125 -13.089844 23.242188 -15.777344 17.613281 -16.972656 L 12.28125 -18.125 C 8.484375 -18.933594 6.992188 -20.296875 6.992188 -22.6875 C 6.992188 -25.882812 9.550781 -27.71875 13.902344 -27.71875 C 18.550781 -27.71875 21.238281 -25.671875 21.578125 -21.832031 L 25.371094 -21.832031 C 24.859375 -27.675781 20.765625 -30.960938 14.03125 -30.960938 C 7.035156 -30.960938 3.242188 -27.460938 3.242188 -22.34375 C 3.242188 -17.527344 6.824219 -15.480469 11.769531 -14.457031 L 16.035156 -13.5625 C 20.765625 -12.578125 22.472656 -11.003906 22.472656 -8.144531 C 22.472656 -4.734375 19.914062 -2.601562 14.710938 -2.601562 C 9.46875 -2.601562 6.398438 -4.777344 5.96875 -9.808594 L 2.175781 -9.808594 C 2.6875 -2.816406 6.992188 0.640625 14.585938 0.640625 Z M 14.585938 0.640625 "/></g></g></g><g fill="#000000" fill-opacity="1"><g transform="translate(30.490965, 40.432378)"><g><path d="M 13.945312 -18.976562 L 13.945312 -22.003906 L 8.914062 -21.832031 L 8.914062 -28.742188 L 4.988281 -28.742188 L 4.988281 -21.875 L 1.707031 -22.003906 L 1.707031 -18.976562 L 4.988281 -19.148438 L 4.988281 -4.902344 C 4.988281 -1.492188 6.480469 0 9.894531 0 L 13.902344 0 L 13.902344 -3.285156 L 11.042969 -3.285156 C 9.425781 -3.285156 8.914062 -3.796875 8.914062 -5.414062 L 8.914062 -19.148438 Z M 13.945312 -18.976562 "/></g></g></g><g fill="#000000" fill-opacity="1"><g transform="translate(46.141195, 40.432378)"><g><path d="M 12.707031 0.554688 C 18.890625 0.554688 23.324219 -4.265625 23.324219 -11.171875 C 23.324219 -18.167969 18.976562 -22.558594 12.835938 -22.558594 C 6.523438 -22.558594 2.132812 -18.082031 2.132812 -11.003906 C 2.132812 -4.09375 6.398438 0.554688 12.707031 0.554688 Z M 12.707031 -2.730469 C 8.570312 -2.730469 6.054688 -6.011719 6.054688 -11.003906 C 6.054688 -15.992188 8.527344 -19.273438 12.707031 -19.273438 C 16.972656 -19.273438 19.402344 -16.160156 19.402344 -11.171875 C 19.402344 -6.183594 16.972656 -2.730469 12.707031 -2.730469 Z M 12.707031 -2.730469 "/></g></g></g><g fill="#000000" fill-opacity="1"><g transform="translate(72.025899, 40.432378)"><g><path d="M 13.859375 -22.601562 C 10.53125 -22.601562 8.402344 -20.726562 7.078125 -17.78125 L 7.078125 -22.003906 L 3.410156 -22.003906 L 3.410156 0 L 7.335938 0 L 7.335938 -12.027344 C 7.503906 -16.503906 10.746094 -18.761719 13.644531 -18.761719 C 14.03125 -18.761719 14.457031 -18.761719 15.054688 -18.71875 L 15.054688 -22.515625 C 14.667969 -22.558594 14.285156 -22.601562 13.859375 -22.601562 Z M 13.859375 -22.601562 "/></g></g></g><g fill="#000000" fill-opacity="1"><g transform="translate(88.1452, 40.432378)"><g><path d="M 12.921875 -8.144531 C 12.496094 -6.992188 12.066406 -5.714844 11.726562 -4.519531 C 11.386719 -5.714844 10.960938 -6.992188 10.53125 -8.144531 L 5.332031 -22.003906 L 1.066406 -22.003906 L 9.9375 -0.214844 L 8.914062 2.472656 C 8.015625 4.777344 7.25 5.414062 5.246094 5.414062 L 3.199219 5.414062 L 3.199219 8.699219 L 5.628906 8.699219 C 8.742188 8.699219 10.363281 7.675781 11.683594 4.308594 L 21.917969 -22.003906 L 17.867188 -22.003906 Z M 12.921875 -8.144531 "/></g></g></g><g fill="#000000" fill-opacity="1"><g transform="translate(106.899254, 48.48563)"><g><path d="M 28.921875 0 L 33.902344 0 L 20.054688 -19.703125 L 33.902344 -39.410156 L 28.921875 -39.410156 L 17.5625 -22.601562 L 6.203125 -39.410156 L 1.160156 -39.410156 L 15.070312 -19.648438 L 1.21875 0 L 6.203125 0 L 17.5625 -16.808594 Z M 28.921875 0 "/></g></g></g><path stroke-linecap="butt" transform="matrix(0.0511058, 0, 0, 0.0511058, 3.920883, 45.948962)" fill="none" stroke-linejoin="miter" d="M 0.0194106 31.496037 L 1600.405389 31.496037 " stroke="#000000" stroke-width="63" stroke-opacity="1" stroke-miterlimit="4"/></svg>