<svg xmlns="http://www.w3.org/2000/svg" xmlns:xlink="http://www.w3.org/1999/xlink" width="180" zoomAndPan="magnify" viewBox="0 0 135 44.999999" height="60" preserveAspectRatio="xMidYMid meet" version="1.0"><defs><g/></defs><path stroke-linecap="butt" transform="matrix(0.194841, 0, 0, 0.194841, 25.104457, 37.239318)" fill="none" stroke-linejoin="miter" d="M 0.00519096 11.001225 L 439.104181 11.001225 " stroke="#ffde59" stroke-width="22" stroke-opacity="1" stroke-miterlimit="4"/><g fill="#ffffff" fill-opacity="1"><g transform="translate(23.863103, 34.468085)"><g><path d="M 9.265625 0.3125 C 6.273438 0.3125 4.113281 -0.425781 2.78125 -1.90625 C 1.457031 -3.394531 0.796875 -5.785156 0.796875 -9.078125 L 0.796875 -12.296875 L 7.28125 -12.296875 L 7.28125 -8.203125 C 7.28125 -6.566406 7.800781 -5.75 8.84375 -5.75 C 9.4375 -5.75 9.847656 -5.921875 10.078125 -6.265625 C 10.304688 -6.609375 10.421875 -7.1875 10.421875 -8 C 10.421875 -9.070312 10.289062 -9.957031 10.03125 -10.65625 C 9.78125 -11.363281 9.457031 -11.953125 9.0625 -12.421875 C 8.664062 -12.898438 7.957031 -13.632812 6.9375 -14.625 L 4.09375 -17.46875 C 1.894531 -19.613281 0.796875 -21.988281 0.796875 -24.59375 C 0.796875 -27.394531 1.441406 -29.53125 2.734375 -31 C 4.023438 -32.46875 5.910156 -33.203125 8.390625 -33.203125 C 11.347656 -33.203125 13.476562 -32.414062 14.78125 -30.84375 C 16.082031 -29.28125 16.734375 -26.820312 16.734375 -23.46875 L 10.03125 -23.46875 L 10 -25.734375 C 10 -26.171875 9.875 -26.515625 9.625 -26.765625 C 9.382812 -27.023438 9.046875 -27.15625 8.609375 -27.15625 C 8.097656 -27.15625 7.710938 -27.015625 7.453125 -26.734375 C 7.203125 -26.453125 7.078125 -26.066406 7.078125 -25.578125 C 7.078125 -24.503906 7.691406 -23.394531 8.921875 -22.25 L 12.75 -18.578125 C 13.644531 -17.703125 14.382812 -16.875 14.96875 -16.09375 C 15.5625 -15.320312 16.035156 -14.40625 16.390625 -13.34375 C 16.742188 -12.28125 16.921875 -11.023438 16.921875 -9.578125 C 16.921875 -6.328125 16.328125 -3.863281 15.140625 -2.1875 C 13.953125 -0.519531 11.992188 0.3125 9.265625 0.3125 Z M 9.265625 0.3125 "/></g></g></g><g fill="#ffffff" fill-opacity="1"><g transform="translate(39.412092, 34.468085)"><g><path d="M 7.125 0.3125 C 5.363281 0.3125 4.148438 -0.0546875 3.484375 -0.796875 C 2.816406 -1.546875 2.484375 -2.734375 2.484375 -4.359375 L 2.484375 -21.875 L 0.609375 -21.875 L 0.609375 -26.96875 L 2.484375 -26.96875 L 2.484375 -32.890625 L 9 -32.890625 L 9 -26.96875 L 10.921875 -26.96875 L 10.921875 -21.875 L 9 -21.875 L 9 -6.125 C 9 -5.644531 9.035156 -5.285156 9.109375 -5.046875 C 9.191406 -4.816406 9.398438 -4.703125 9.734375 -4.703125 C 9.984375 -4.703125 10.222656 -4.710938 10.453125 -4.734375 C 10.679688 -4.765625 10.835938 -4.78125 10.921875 -4.78125 L 10.921875 -0.1875 C 10.535156 -0.0820312 9.976562 0.0234375 9.25 0.140625 C 8.519531 0.253906 7.8125 0.3125 7.125 0.3125 Z M 7.125 0.3125 "/></g></g></g><g fill="#ffffff" fill-opacity="1"><g transform="translate(48.986572, 34.468085)"><g><path d="M 9.5 0.3125 C 3.90625 0.3125 1.109375 -2.585938 1.109375 -8.390625 L 1.109375 -19.640625 C 1.109375 -22.296875 1.851562 -24.410156 3.34375 -25.984375 C 4.84375 -27.554688 6.894531 -28.34375 9.5 -28.34375 C 12.101562 -28.34375 14.148438 -27.554688 15.640625 -25.984375 C 17.140625 -24.410156 17.890625 -22.296875 17.890625 -19.640625 L 17.890625 -8.390625 C 17.890625 -2.585938 15.09375 0.3125 9.5 0.3125 Z M 9.5 -4.859375 C 10.03125 -4.859375 10.421875 -5.050781 10.671875 -5.4375 C 10.929688 -5.820312 11.0625 -6.347656 11.0625 -7.015625 L 11.0625 -20.71875 C 11.0625 -22.351562 10.539062 -23.171875 9.5 -23.171875 C 8.445312 -23.171875 7.921875 -22.351562 7.921875 -20.71875 L 7.921875 -7.015625 C 7.921875 -6.347656 8.046875 -5.820312 8.296875 -5.4375 C 8.554688 -5.050781 8.957031 -4.859375 9.5 -4.859375 Z M 9.5 -4.859375 "/></g></g></g><g fill="#ffffff" fill-opacity="1"><g transform="translate(65.91426, 34.468085)"><g><path d="M 1.34375 -28.03125 L 8.046875 -28.03125 L 8.046875 -24.9375 C 8.378906 -26.03125 8.957031 -26.875 9.78125 -27.46875 C 10.613281 -28.070312 11.644531 -28.375 12.875 -28.375 L 12.875 -22.78125 C 11.925781 -22.78125 10.882812 -22.644531 9.75 -22.375 C 8.613281 -22.113281 8.046875 -21.804688 8.046875 -21.453125 L 8.046875 0 L 1.34375 0 Z M 1.34375 -28.03125 "/></g></g></g><g fill="#ffffff" fill-opacity="1"><g transform="translate(76.982374, 34.468085)"><g><path d="M 0.796875 0.421875 L 4.015625 0.421875 C 4.472656 0.421875 4.703125 0.226562 4.703125 -0.15625 C 4.703125 -0.332031 4.691406 -0.472656 4.671875 -0.578125 L 0.3125 -28.03125 L 6.703125 -28.03125 L 7.96875 -14.359375 L 8.578125 -7.390625 L 9.3125 -14.359375 L 10.796875 -28.03125 L 17.234375 -28.03125 L 12.03125 1.453125 C 11.84375 2.554688 11.472656 3.367188 10.921875 3.890625 C 10.378906 4.410156 9.519531 4.671875 8.34375 4.671875 L 0.796875 4.671875 Z M 0.796875 0.421875 "/></g></g></g><g fill="#ffffff" fill-opacity="1"><g transform="translate(92.531361, 34.468085)"><g><path d="M 0.5 0 L 4.015625 -17.46875 L 1.21875 -32.9375 L 7.65625 -32.9375 L 9.375 -21.59375 L 10.875 -32.9375 L 17.34375 -32.9375 L 14.515625 -17.46875 L 18.03125 0 L 11.375 0 L 9.3125 -12.875 L 7.203125 0 Z M 0.5 0 "/></g></g></g></svg>